<svg width="72" height="81" viewBox="0 0 72 81" fill="none" xmlns="http://www.w3.org/2000/svg">
<g clip-path="url(#clip0_673_5846)">
<path opacity="0.53" d="M0.327295 77.5596C0.0641853 71.8532 27.8404 72.9521 42.7739 71.4467C49.8891 70.7293 60.385 70.0571 65.2552 71.5277C95.5583 80.6763 0.547854 82.3547 0.327295 77.5596Z" fill="#F4F4F4"/>
<path d="M21.2548 14.2746C21.2548 14.2746 18.3486 11.3936 26.8397 12.9652C31.1693 13.7662 35.4435 15.996 36.0471 14.5362C36.6513 13.077 38.613 14.8358 38.2741 16.6317C37.9343 18.4277 37.3684 20.2617 34.3118 19.1387C31.2551 18.0163 26.7645 13.6382 21.2555 14.2746H21.2548Z" fill="url(#paint0_linear_673_5846)" stroke="black"/>
<path d="M20.9265 13.469C20.9265 13.469 18.1869 12.2792 24.7143 11.2912C28.0425 10.7877 31.6381 11.2279 31.7629 10.133C31.8885 9.03882 33.6969 9.72022 33.8374 10.9719C33.9769 12.2236 33.96 13.5527 31.4906 13.5457C29.0212 13.5379 24.8043 11.7483 20.9265 13.469Z" fill="url(#paint1_linear_673_5846)" stroke="black"/>
<path d="M60.1135 75.1674C60.2286 75.9333 60.9538 76.4887 61.7347 76.4077C62.5155 76.3277 63.056 75.6412 62.9412 74.8764C62.8264 74.1105 62.1008 73.5551 61.32 73.6357C60.5392 73.716 59.9987 74.4016 60.1135 75.1674Z" fill="black" stroke="black"/>
<path d="M42.0666 40.1939C41.9176 39.8072 41.7121 39.4466 41.4929 39.0928L42.329 39.1194C42.5349 39.1266 42.7254 39.244 42.8233 39.4242L52.0054 56.3298C52.1521 56.5998 52.0513 56.9253 51.7804 57.0577C51.7215 57.0863 51.6584 57.1038 51.596 57.1103C51.3706 57.1334 51.1394 57.019 51.0246 56.8079L42.0984 40.3718C42.1007 40.3165 42.0916 40.2567 42.0672 40.1933L42.0666 40.1939Z" fill="black" stroke="black"/>
<path d="M39.3199 39.2847C39.42 39.125 39.5992 39.0307 39.795 39.0369L40.4724 39.0587C40.702 39.4203 40.9306 39.7839 41.1143 40.167L40.7264 40.1543L49.3146 56.1283C49.46 56.3985 49.3579 56.7241 49.086 56.8548C48.8145 56.9849 48.4769 56.8724 48.3309 56.6024L39.3072 39.8177C39.2148 39.6467 39.22 39.4434 39.3192 39.2837L39.3199 39.2847Z" fill="black" stroke="black"/>
<path d="M57.5992 76.1469C57.7335 77.0435 58.5836 77.6933 59.4971 77.5999C60.4112 77.5056 61.0437 76.7024 60.9098 75.8068C60.7751 74.9102 59.9254 74.2595 59.0122 74.3544C58.0981 74.4487 57.4652 75.2517 57.5992 76.1476V76.1469Z" fill="black" stroke="black"/>
<path d="M47.8025 53.2625C48.5494 52.9226 54.9413 52.0768 57.2106 52.8192C57.8356 53.0238 58.3631 53.469 58.6688 54.0589C60.1722 56.9591 65.0659 66.5178 66.6151 71.0183C66.6451 71.1041 66.6864 71.1822 66.7303 71.2622C67.728 73.1048 63.5013 75.8134 59.2646 76.0441C58.2737 76.0976 51.9088 62.1987 48.2623 56.7623C47.4438 55.5428 46.5231 53.8452 47.8034 53.2625H47.8025Z" fill="#AEC9FB" stroke="black"/>
<path d="M48.1177 53.166L50.2523 52.8138C50.8081 52.7224 51.3762 53.0184 51.6478 53.5416L62.2036 73.8798C62.6049 74.6532 62.2 75.5667 61.3844 75.7276L57.9447 76.4076C57.3499 76.525 56.7349 76.1927 56.4761 75.6138L47.2253 54.9481C46.8764 54.1689 47.3125 53.299 48.1184 53.166H48.1177Z" fill="#AEC9FB" stroke="black"/>
<path d="M39.7903 39.0083L42.8882 39.0363C43.2888 39.0418 43.6222 39.3592 43.6348 39.7495C43.6475 40.1397 43.3334 40.4526 42.934 40.449L39.8365 40.4204C39.8209 40.4204 39.8059 40.4204 39.7909 40.4187C39.4118 40.3921 39.1025 40.0828 39.0895 39.7078C39.0768 39.3176 39.3909 39.0048 39.7903 39.0083Z" fill="#4B4D59" stroke="black"/>
<path d="M40.8591 36.2202L41.7463 37.2488C41.7463 37.2488 45.0481 38.7642 42.9723 40.2979C40.8972 41.8325 40.7086 40.2979 40.4065 39.7369C40.105 39.1756 39.4065 39.1194 39.4065 39.1194C39.4065 39.1194 39.1996 39.0631 39.2178 38.147C39.3882 37.2862 37.9541 34.7603 37.9541 34.7603L39.6712 34.1802L40.8598 36.2195L40.8591 36.2202Z" fill="#D1D1D1" stroke="black"/>
<path d="M12.0559 72.0178L10.6857 75.4549C10.6857 75.4549 11.0666 76.3417 10.1325 76.5915C9.19853 76.8402 7.51421 76.2389 7.2199 75.9508C6.60575 75.3502 9.37866 75.1596 9.37866 75.1596L11.0921 70.915L12.0559 72.0178Z" fill="#D1D1D1" stroke="black"/>
<path d="M9.70703 73.8929C12.4679 47.0142 14.2593 36.8038 15.1671 32.9579C15.6451 30.932 15.8777 30.6718 15.8777 30.6718C17.5195 29.624 22.6023 26.2761 24.2008 35.4077C24.1632 41.6734 19.3236 55.8253 15.1082 65.5951C13.4785 69.3733 12.3069 72.5505 11.6048 74.4767C11.4147 74.4497 9.88079 73.9801 9.70703 73.8936V73.8929Z" fill="black" stroke="black"/>
<path d="M9.27159 75.0927C9.27159 75.0927 5.75897 74.9343 5.37458 75.599C4.76043 76.6614 9.79214 77.601 10.5673 77.1327C11.3112 76.6832 10.8148 75.653 10.8148 75.653C10.8148 75.653 10.0574 76.0748 9.27159 75.0927Z" fill="#223265" stroke="black"/>
<path d="M19.979 10.2275L21.4804 15.9966C21.4804 15.9966 18.9776 18.5676 17.6344 18.7152C16.0721 18.8868 16.9557 10.6811 16.9557 10.6811L19.979 10.2275Z" fill="white" stroke="black"/>
<path d="M32.9251 70.1206L35.82 72.479C35.82 72.479 36.793 72.3912 36.7462 73.3538C36.6994 74.3167 35.6002 75.7287 35.2307 75.92C34.462 76.318 35.1322 73.6289 35.1322 73.6289L31.5642 70.6959L32.9251 70.1206Z" fill="#D1D1D1" stroke="black"/>
<path d="M17.4231 42.0488C17.4273 42.0488 17.4316 42.0501 17.4358 42.0507C17.7401 39.4524 18.2975 37.8738 18.2975 37.8738C18.2975 37.8738 16.911 32.6679 20.1591 31.1244C23.408 29.5808 30.1488 25.787 27.2652 44.4465C24.3824 63.106 35.3948 71.4862 35.3948 71.4862C35.3948 71.4862 34.0565 73.1909 33.97 73.1379C17.7472 62.3298 16.6912 48.812 17.4231 42.0494V42.0488Z" fill="black" stroke="black"/>
<path d="M10.9985 16.7695C11.6091 15.3567 16.6996 13.6304 16.7188 14.1029C16.7245 14.245 16.8266 14.9855 18.1968 15.3216C20.113 15.7913 20.9888 14.0495 20.9888 14.0495C22.8604 13.7576 26.5397 15.4721 27.4226 16.6689C29.4658 19.4375 30.0828 41.6608 27.8212 42.5082C26.2142 43.1102 15.2274 43.2445 12.8381 41.2536C9.55526 31.0016 10.1248 18.7905 10.9978 16.7702L10.9985 16.7695Z" fill="#1D68FF" stroke="black"/>
<path d="M34.9635 73.6945C34.9635 73.6945 33.8357 76.9967 34.3742 77.5472C35.2337 78.4272 37.5384 73.8936 37.2988 73.025C37.0698 72.1918 35.9342 72.3794 35.9342 72.3794C35.9342 72.3794 36.1329 73.2185 34.9635 73.6945Z" fill="#223265" stroke="black"/>
<path d="M14.5245 10.5985C14.2479 11.1892 14.477 11.5471 13.6139 12.5534C13.2331 12.9971 13.5019 14.4478 13.0551 14.7038C12.6083 14.9605 11.0814 14.0575 11.2048 13.4528C11.3275 12.848 14.2501 9.68501 14.3614 9.68712C14.4714 9.68924 15.1983 9.16182 14.5252 10.5978L14.5245 10.5985Z" fill="white" stroke="black"/>
<path d="M11.4807 12.76C10.9502 12.6995 4.47669 21.5613 7.11064 28.4653C7.47656 29.4238 8.47298 29.9006 9.3162 29.473C11.5048 28.3634 13.4366 23.2194 13.4657 13.5328C12.8608 12.909 12.2572 12.8479 11.4807 12.7593V12.76Z" fill="#504B5B" stroke="black"/>
<path d="M14.1758 6.1912L10.8383 10.8499C10.8043 10.8985 10.8021 10.9631 10.8333 11.0131L12.1687 13.1501C12.2269 13.2422 12.3624 13.2437 12.4212 13.1515L15.3012 8.66157C15.3268 8.62219 15.3317 8.57367 15.3147 8.53006L14.4367 6.22496C14.3949 6.11455 14.2453 6.09488 14.1758 6.19192V6.1912Z" fill="#223265" stroke="black"/>
<path d="M14.2571 7.6963C14.1543 7.60911 13.2742 7.60768 12.7621 7.6963C12.2501 7.78632 11.7707 8.18222 11.5189 8.57884C11.1828 9.10973 11.4175 9.90365 11.4615 9.94866C11.4927 9.98101 12.0976 9.09285 12.0976 9.09285C12.0976 9.09285 12.1246 9.02677 12.8713 9.04365C13.6181 9.06053 14.6231 8.00713 14.2564 7.69558L14.2571 7.6963Z" fill="#D1D1D1" stroke="black"/>
<path d="M26.8022 16.0666C26.8022 16.0666 27.1561 15.7439 28.444 17.1193C29.4958 18.2416 37.3308 25.389 41.1796 36.3893C40.8024 37.6615 39.1422 37.6992 38.9152 37.6992C38.6882 37.6992 34.6934 31.3571 29.1085 27.2785C28.5851 26.6611 26.5193 16.6847 26.8015 16.0673L26.8022 16.0666Z" fill="#4B4D59" stroke="black"/>
<path d="M15.9338 14.7931C17.0919 15.6489 19.8358 17.0377 23.2087 14.3965C23.3498 12.8248 20.8315 12.5443 20.718 12.6568C20.6046 12.7693 17.86 14.2101 16.2749 13.2742C16.0806 13.0287 15.8636 13.2348 15.687 13.5238C15.4296 13.9457 15.5353 14.4985 15.9345 14.7931H15.9338Z" fill="url(#paint2_linear_673_5846)" stroke="black"/>
<path d="M17.0854 2.36072C17.3315 2.46902 20.6576 3.60328 19.9023 7.9062C19.8002 9.97501 17.0422 11.1683 15.4763 8.55104C13.9097 5.93371 14.355 1.15965 17.0854 2.36072Z" fill="#D1D1D1" stroke="black"/>
<path d="M16.4976 7.87189C16.5523 7.77417 16.6423 7.70103 16.7508 7.6715C16.826 7.65111 16.9083 7.62717 16.9572 7.6089C17.077 7.56389 17.2111 7.58288 17.3196 7.65179C18.0224 8.09973 19.1457 8.47595 19.5188 6.66802C19.6755 5.75244 19.9244 5.75244 19.9244 5.75244C19.9244 5.75244 22.2314 10.087 19.1833 12.3218C17.3118 13.6937 13.9389 11.7466 15.1686 7.89088C15.7282 8.746 16.2147 8.38031 16.4962 7.87332L16.4976 7.87189Z" fill="black" stroke="black"/>
<path d="M18.9152 3.03883C18.9152 3.03883 17.0904 -0.579863 13.1168 1.43622C12.9466 1.52272 12.7963 1.65562 12.7147 1.8272C12.4069 2.46853 13.2899 2.87217 13.9615 2.8131C12.9899 2.94882 12.3303 4.0212 13.8749 4.20967C13.5019 4.53666 13.8409 5.45926 14.6352 5.48105C14.6012 5.41354 14.5785 4.20967 15.3728 3.78141C15.8494 3.52474 17.2124 2.95936 17.8244 3.28636C19.1407 3.98815 19.913 5.59357 19.913 5.59357C19.913 5.59357 19.6492 3.94807 18.9145 3.03883H18.9152Z" fill="black" stroke="black"/>
<path d="M19.2668 4.7443C19.2668 4.7443 20.0739 3.67754 20.2647 4.82586C20.4164 5.73721 19.5427 5.89191 19.5427 5.89191L19.2668 4.74359V4.7443Z" fill="white" stroke="black"/>
</g>
<defs>
<linearGradient id="paint0_linear_673_5846" x1="1774.6" y1="361.858" x2="20.8259" y2="361.858" gradientUnits="userSpaceOnUse">
<stop stop-color="#D6ECFA"/>
<stop offset="1" stop-color="#A7CFEE"/>
</linearGradient>
<linearGradient id="paint1_linear_673_5846" x1="1520.4" y1="195.682" x2="355.025" y2="581.419" gradientUnits="userSpaceOnUse">
<stop stop-color="#D6ECFA"/>
<stop offset="1" stop-color="#A7CFEE"/>
</linearGradient>
<linearGradient id="paint2_linear_673_5846" x1="782.226" y1="177.487" x2="15.4483" y2="177.487" gradientUnits="userSpaceOnUse">
<stop stop-color="#D6ECFA"/>
<stop offset="1" stop-color="#A7CFEE"/>
</linearGradient>
<clipPath id="clip0_673_5846">
<rect width="71.5447" height="80" fill="white" transform="translate(0 0.5)"/>
</clipPath>
</defs>
</svg>
