<svg width="98" height="30" viewBox="0 0 98 30" fill="none" xmlns="http://www.w3.org/2000/svg">
<path d="M84.1591 8.32535L80.0686 21.637H79.2022C80.475 18.1947 80.4485 15.3441 79.771 13.5423L77.7937 8.32535H71.6177L78.0643 24.622C77.685 25.1868 77.3061 25.2943 76.6828 25.2943C76.0328 25.2943 75.0578 24.9985 74.0826 24.4338L72.2406 28.5483C73.8662 29.382 75.5994 30.0005 77.685 30.0005C81.0443 30.0005 82.6147 28.4407 84.0779 24.5414L90.1993 8.32535H84.1591ZM65.6317 11.6867H64.873L65.3065 8.32535H59.4556V24.9716H65.3065V19.7278C65.3065 15.9088 67.0672 14.1609 70.1551 14.1609H70.6427V7.97562C67.8259 7.86826 66.3086 9.34714 65.6317 11.6867ZM32.5851 7.895C29.8767 7.895 28.2788 9.07829 26.9789 12.0364H26.0849C27.1408 10.1001 27.2765 8.43284 27.2765 6.46973V3.00049H21.4258C21.4258 5.36706 18.9604 6.01252 17.3353 5.15195C14.8434 3.83418 12.3785 3.00049 9.4532 3.00049C4.38807 3.00049 1.02932 5.74353 1.02932 9.88511C1.02932 14.403 4.6046 15.7744 9.23614 16.7426C12.5685 17.4417 13.2995 17.9258 13.2995 18.9208C13.2995 19.8352 12.4326 20.3732 10.4824 20.3732C7.96348 20.3732 5.49858 19.4586 3.35836 17.7644L0 21.7445C2.68195 24.1379 6.33792 25.3212 10.1843 25.3212C15.9268 25.3212 19.3944 22.6859 19.3944 18.2755C19.3944 14.1878 16.2791 12.601 10.8617 11.5254C7.82814 10.9338 7.12415 10.4228 7.12415 9.42789C7.12415 8.5942 7.90935 7.97562 9.372 7.97562C11.0512 7.97562 12.6762 8.45984 14.7892 9.80423C17.0107 11.2028 19.9626 11.2565 21.4258 9.69662V24.9716H27.2765V15.9628C27.2765 14.107 28.3329 13.1121 29.7414 13.1121C31.2041 13.1121 32.1522 14.107 32.1522 15.9628V24.9716H38.0029V14.0802C38.0029 10.2615 35.8628 7.895 32.5851 7.895ZM48.7023 7.97562C43.3661 7.97562 39.5469 11.8212 39.5469 16.6619C39.5469 21.5025 43.3661 25.3212 48.7023 25.3212C54.0385 25.3212 57.966 21.5025 57.966 16.6619C57.966 11.8212 54.0385 7.97562 48.7023 7.97562ZM48.7294 20.3462C46.6709 20.3462 45.2353 18.7596 45.2353 16.6619C45.2353 14.5913 46.6709 12.9506 48.7294 12.9506C50.7879 12.9506 52.2776 14.5913 52.2776 16.6619C52.2776 18.7596 50.7879 20.3462 48.7294 20.3462Z" fill="#101429"/>
<path d="M88.0327 21.8252C88.0327 19.6468 89.8471 18.2486 91.8786 18.2486C93.9105 18.2486 95.5897 19.6468 95.5897 21.8252C95.5897 24.0035 93.9105 25.4018 91.8786 25.4018C89.8471 25.4018 88.0327 24.0035 88.0327 21.8252Z" fill="#101429"/>
</svg>
