<svg width="36" height="24" viewBox="0 0 36 24" fill="none" xmlns="http://www.w3.org/2000/svg">
<rect y="0.000976562" width="36" height="24" rx="2" fill="#F2F0EC"/>
<g opacity="0.01">
<rect x="3.47998" y="2.40088" width="29.025" height="19.2" fill="white"/>
</g>
<rect x="14.1748" y="5.74585" width="7.665" height="12.51" fill="#F26122"/>
<path d="M14.9999 12.0009C14.9918 9.56706 16.0968 7.26304 17.9999 5.74591C14.7396 3.18822 10.0614 3.56389 7.25091 6.60909C4.44045 9.65428 4.44045 14.3475 7.25091 17.3927C10.0614 20.4379 14.7396 20.8136 17.9999 18.2559C16.0932 16.7416 14.9873 14.4358 14.9999 12.0009Z" fill="#EA1D25"/>
<path fill-rule="evenodd" clip-rule="evenodd" d="M30.615 16.6208V16.9358H30.45V16.8458L30.54 16.6208H30.615ZM30.4179 16.7655L30.45 16.8458V16.6958L30.4179 16.7655ZM30.36 16.6208L30.4179 16.7655L30.36 16.8908L30.27 16.6958V16.6208H30.36ZM30.105 16.6808V16.9358H30V16.6808H30.105Z" fill="#F69E1E"/>
<path d="M30.87 12.0009C30.8622 15.0427 29.1225 17.8145 26.3867 19.1441C23.6509 20.4738 20.3966 20.1291 18 18.2559C19.9158 16.7456 21.0339 14.4405 21.0339 12.0009C21.0339 9.56132 19.9158 7.25627 18 5.74591C20.3936 3.86009 23.6545 3.50834 26.3951 4.84035C29.1358 6.17235 30.874 8.95371 30.87 12.0009Z" fill="#F69E1E"/>
</svg>
