<svg width="71" height="72" viewBox="0 0 71 72" fill="none" xmlns="http://www.w3.org/2000/svg">
<path d="M46.5939 14.6513H47.0939V14.1513C47.0939 10.1408 45.5977 6.86783 43.154 4.60034C40.7148 2.33708 37.36 1.10107 33.6788 1.10107H14.0088C6.55435 1.10107 0.59375 7.63985 0.59375 15.6343V29.3633H1.09375H1.59375C1.59375 21.195 7.67318 14.6513 15.0938 14.6513H46.5939Z" fill="#4B4D59" stroke="black"/>
<path d="M62.5002 51.1721V56.1865C62.5002 64.355 56.4207 70.8986 49.0001 70.8986H14C6.57944 70.8986 0.5 64.355 0.5 56.1865V29.5652C0.5 21.3967 6.57944 14.853 14 14.853H49.0001C56.3857 14.853 62.5002 21.4347 62.5002 29.5652V34.5796H59.2202C57.1139 34.5796 55.1971 35.4797 53.8117 37.0233C51.9492 39.0095 51.0645 41.9951 51.8046 45.0106L51.8048 45.0115C52.7389 48.7874 56.172 51.1721 59.7452 51.1721H62.5002Z" fill="#1D68FF" stroke="black"/>
<path d="M70.5001 46.7944V38.9602C70.5001 36.5909 68.7015 34.5811 66.3951 34.5811H59.2201C57.1139 34.5811 55.1972 35.4811 53.8119 37.0245C52.2477 38.6863 51.3603 41.0675 51.5817 43.6028C51.9183 47.9735 55.6038 51.1735 59.64 51.1735H66.3951C68.7015 51.1735 70.5001 49.1637 70.5001 46.7944Z" fill="#C0D5FF" stroke="black"/>
<path d="M38.5015 35.7207H17.5015C16.3809 35.7207 15.3765 34.6914 15.3765 33.3684C15.3765 32.0454 16.3809 31.0161 17.5015 31.0161H38.5015C39.6221 31.0161 40.6265 32.0454 40.6265 33.3684C40.6265 34.6914 39.6221 35.7207 38.5015 35.7207Z" fill="white" stroke="black"/>
</svg>
