<svg width="36" height="24" viewBox="0 0 36 24" fill="none" xmlns="http://www.w3.org/2000/svg">
<rect y="0.000976562" width="36" height="24" rx="2" fill="#F2F0EC"/>
<path d="M15.0669 14.8178L16.1844 8.22095H17.9304L16.8478 14.8178H15.0669Z" fill="#3C58BF"/>
<path d="M15.0669 14.8178L16.4986 8.22095H17.9304L16.8478 14.8178H15.0669Z" fill="#293688"/>
<path d="M23.1681 8.29417C22.8188 8.14757 22.2601 8.00098 21.5617 8.00098C19.8157 8.00098 18.5585 8.91721 18.5585 10.2366C18.5585 11.2261 19.4315 11.7392 20.13 12.069C20.8284 12.3989 21.0379 12.6188 21.0379 12.912C21.0379 13.3518 20.4792 13.5717 19.9903 13.5717C19.2919 13.5717 18.9077 13.4617 18.3141 13.2052L18.0696 13.0952L17.8252 14.5978C18.2442 14.7811 19.0125 14.9643 19.8157 14.9643C21.6665 14.9643 22.8887 14.0481 22.8887 12.6554C22.8887 11.8858 22.4347 11.2994 21.3871 10.823C20.7585 10.4931 20.3744 10.3099 20.3744 9.98003C20.3744 9.68684 20.6887 9.39365 21.3871 9.39365C21.9808 9.39365 22.3998 9.50359 22.7141 9.65019L22.8887 9.72349L23.1681 8.29417Z" fill="#3C58BF"/>
<path d="M23.1681 8.29417C22.8188 8.14757 22.2601 8.00098 21.5617 8.00098C19.8157 8.00098 18.8728 8.91721 18.8728 10.2366C18.8728 11.2261 19.4315 11.7392 20.13 12.069C20.8284 12.3989 21.0379 12.6188 21.0379 12.912C21.0379 13.3518 20.4792 13.5717 19.9903 13.5717C19.2919 13.5717 18.9077 13.4617 18.3141 13.2052L18.0696 13.0952L17.8252 14.5978C18.2442 14.7811 19.0125 14.9643 19.8157 14.9643C21.6665 14.9643 22.8887 14.0481 22.8887 12.6554C22.8887 11.8858 22.4347 11.2994 21.3871 10.823C20.7585 10.4931 20.3744 10.3099 20.3744 9.98003C20.3744 9.68684 20.6887 9.39365 21.3871 9.39365C21.9808 9.39365 22.3998 9.50359 22.7141 9.65019L22.8887 9.72349L23.1681 8.29417Z" fill="#293688"/>
<path d="M26.1715 8.22095C25.7525 8.22095 25.4382 8.2576 25.2636 8.69739L22.6445 14.8178H24.5302L24.8795 13.7183H27.1144L27.3239 14.8178H29.0001L27.5334 8.22095H26.1715ZM25.3683 12.6189C25.4731 12.289 26.0668 10.6764 26.0668 10.6764C26.0668 10.6764 26.2064 10.2733 26.3112 10.0168L26.416 10.6398C26.416 10.6398 26.7652 12.289 26.835 12.6555H25.3683V12.6189Z" fill="#3C58BF"/>
<path d="M26.5906 8.22095C26.1715 8.22095 25.8572 8.2576 25.6826 8.69739L22.6445 14.8178H24.5302L24.8795 13.7183H27.1144L27.3239 14.8178H29.0001L27.5334 8.22095H26.5906ZM25.3683 12.6189C25.508 12.2524 26.0668 10.6764 26.0668 10.6764C26.0668 10.6764 26.2064 10.2733 26.3112 10.0168L26.416 10.6398C26.416 10.6398 26.7652 12.289 26.835 12.6555H25.3683V12.6189Z" fill="#293688"/>
<path d="M11.8539 12.8387L11.6793 11.8858C11.365 10.7864 10.3523 9.57694 9.23486 8.99055L10.8063 14.8544H12.692L15.5206 8.25757H13.6349L11.8539 12.8387Z" fill="#3C58BF"/>
<path d="M11.8539 12.8387L11.6793 11.8858C11.365 10.7864 10.3523 9.57694 9.23486 8.99055L10.8063 14.8544H12.692L15.5206 8.25757H13.9841L11.8539 12.8387Z" fill="#293688"/>
<path d="M7 8.22095L7.31429 8.29425C9.54921 8.84398 11.0857 10.2367 11.6794 11.8859L11.0508 8.77069C10.946 8.33089 10.6317 8.22095 10.2476 8.22095H7Z" fill="#FFBC00"/>
<path d="M7 8.22095C9.23492 8.77069 11.0857 10.2 11.6794 11.8492L11.0857 9.24712C10.981 8.80733 10.6317 8.55079 10.2476 8.55079L7 8.22095Z" fill="#F7981D"/>
<path d="M7 8.22095C9.23492 8.77069 11.0857 10.2 11.6794 11.8492L11.2603 10.4199C11.1556 9.98011 11.0159 9.54032 10.527 9.35707L7 8.22095Z" fill="#ED7C00"/>
<path d="M13.6002 12.6188L12.4129 11.3727L11.8541 12.7654L11.7145 11.8491C11.4002 10.7497 10.3875 9.54024 9.27002 8.95386L10.8414 14.8177H12.7272L13.6002 12.6188ZM16.8478 14.8177L15.3462 13.2052L15.0668 14.8177H16.8478ZM20.8637 12.5455C21.0034 12.6921 21.0732 12.802 21.0383 12.9486C21.0383 13.3884 20.4795 13.6083 19.9907 13.6083C19.2922 13.6083 18.9081 13.4984 18.3145 13.2418L18.07 13.1319L17.8256 14.6345C18.2446 14.8177 19.0129 15.001 19.8161 15.001C20.9335 15.001 21.8414 14.6711 22.3653 14.0847L20.8637 12.5455ZM22.8891 14.8177H24.5303L24.8795 13.7183H27.1145L27.324 14.8177H29.0002L28.4065 12.1423L26.3113 10.0167L26.416 10.6031C26.416 10.6031 26.7653 12.2523 26.8351 12.6188H25.3684C25.5081 12.2523 26.0668 10.6764 26.0668 10.6764C26.0668 10.6764 26.2065 10.2732 26.3113 10.0167" fill="#051244"/>
</svg>
