<svg width="36" height="24" viewBox="0 0 36 24" fill="none" xmlns="http://www.w3.org/2000/svg">
<rect y="0.000976562" width="36" height="24" rx="2" fill="#F2F0EC"/>
<path d="M19.8637 8.28781H14.5474C13.2419 8.28781 12.1846 9.43671 12.1846 10.8552V8.53809C12.1846 7.22873 13.1592 6.16968 14.3643 6.16968H17.684C18.8891 6.16968 19.8637 6.97844 19.8637 8.28781Z" fill="#4B4D59"/>
<path fill-rule="evenodd" clip-rule="evenodd" d="M20.0323 8.45665H14.5472C13.3479 8.45665 12.3532 9.51653 12.3532 10.8552H12.1844C12.1844 10.5176 12.2443 10.1953 12.3532 9.90011C12.7018 8.95498 13.5525 8.28788 14.5472 8.28788H19.8635C19.8635 8.23065 19.8617 8.17439 19.858 8.1191C19.7779 6.90936 18.8362 6.16975 17.6839 6.16975H14.3641C13.1591 6.16975 12.1844 7.2288 12.1844 8.53817V10.8552H12.0156V8.53817C12.0156 7.14905 13.0529 6.00098 14.3641 6.00098H17.6839C18.3239 6.00098 18.9114 6.21599 19.3404 6.61408C19.771 7.0136 20.0323 7.58883 20.0323 8.28788V8.45665Z" fill="black"/>
<path d="M21.1441 12.2052C20.8487 12.5197 20.707 12.9947 20.8251 13.4761C20.9728 14.073 21.5162 14.4517 22.0833 14.4517H22.6327V15.3823C22.6327 16.8008 21.5753 17.9497 20.2699 17.9497H14.3628C13.0574 17.9497 12 16.8008 12 15.3823V10.8894C12 9.47093 13.0574 8.32202 14.3628 8.32202H20.2699C21.5694 8.32202 22.6327 9.47735 22.6327 10.8894V11.8201H21.9947C21.6639 11.8201 21.3627 11.9613 21.1441 12.2052Z" fill="#1D68FF"/>
<path fill-rule="evenodd" clip-rule="evenodd" d="M20.8251 13.4761C20.707 12.9947 20.8487 12.5197 21.1441 12.2052C21.3627 11.9613 21.6639 11.8201 21.9947 11.8201H22.6327V10.8894C22.6327 9.47735 21.5694 8.32202 20.2699 8.32202H14.3628C13.0574 8.32202 12 9.47093 12 10.8894V15.3823C12 16.8008 13.0574 17.9497 14.3628 17.9497H20.2699C21.5753 17.9497 22.6327 16.8008 22.6327 15.3823V14.4517H22.0833C21.5162 14.4517 20.9728 14.073 20.8251 13.4761ZM22.4639 14.6204H22.0833C21.4443 14.6204 20.8289 14.1942 20.6613 13.5166L20.6612 13.5163C20.5295 12.9798 20.6864 12.447 21.0197 12.0911C21.2688 11.8139 21.6145 11.6513 21.9947 11.6513H22.4639V10.8894C22.4639 9.55709 21.4633 8.49079 20.2699 8.49079H14.3628C13.1635 8.49079 12.1688 9.55067 12.1688 10.8894V15.3823C12.1688 16.7211 13.1635 17.781 14.3628 17.781H20.2699C21.4692 17.781 22.4639 16.7211 22.4639 15.3823V14.6204Z" fill="black"/>
<path d="M23.814 12.475V13.7972C23.814 14.1566 23.5423 14.4519 23.2055 14.4519H22.0655C21.4275 14.4519 20.8427 13.9448 20.7896 13.2516C20.7541 12.8473 20.8959 12.4686 21.144 12.2054C21.3626 11.9615 21.6638 11.8203 21.9946 11.8203H23.2055C23.5423 11.8203 23.814 12.1156 23.814 12.475Z" fill="#C0D5FF"/>
<path fill-rule="evenodd" clip-rule="evenodd" d="M23.9831 12.4748V13.797C23.9831 14.2373 23.6477 14.6205 23.2059 14.6205H22.0658C21.3414 14.6205 20.6821 14.0474 20.6217 13.2653C20.5824 12.8139 20.7402 12.3888 21.02 12.091C21.2691 11.8139 21.6148 11.6514 21.9949 11.6514H23.2059C23.6477 11.6514 23.9831 12.0345 23.9831 12.4748ZM21.1443 12.2052C20.8962 12.4684 20.7544 12.8471 20.7899 13.2515C20.843 13.9447 21.4278 14.4517 22.0658 14.4517H23.2059C23.5426 14.4517 23.8143 14.1565 23.8143 13.797V12.4748C23.8143 12.1154 23.5426 11.8201 23.2059 11.8201H21.9949C21.6641 11.8201 21.3629 11.9613 21.1443 12.2052Z" fill="black"/>
<path d="M18.498 12.0126H14.9538C14.7116 12.0126 14.5107 11.7943 14.5107 11.5312C14.5107 11.268 14.7116 11.0498 14.9538 11.0498H18.498C18.7402 11.0498 18.941 11.268 18.941 11.5312C18.941 11.7943 18.7402 12.0126 18.498 12.0126Z" fill="white"/>
<path fill-rule="evenodd" clip-rule="evenodd" d="M14.9538 11.8438H18.498C18.6341 11.8438 18.7722 11.7146 18.7722 11.5312C18.7722 11.3478 18.6341 11.2186 18.498 11.2186H14.9538C14.8177 11.2186 14.6795 11.3478 14.6795 11.5312C14.6795 11.7146 14.8177 11.8438 14.9538 11.8438ZM14.9538 12.0126H18.498C18.7402 12.0126 18.941 11.7943 18.941 11.5312C18.941 11.268 18.7402 11.0498 18.498 11.0498H14.9538C14.7116 11.0498 14.5107 11.268 14.5107 11.5312C14.5107 11.7943 14.7116 12.0126 14.9538 12.0126Z" fill="black"/>
</svg>
